# xmcd CD database file
#
# Track frame offsets:
#	187
#	8255
#	18755
#	31127
#	44180
#	56632
#	67590
#	75005
#	82067
#	94285
#	102090
#	108612
#
# Disc length: 1595 seconds
#
# Revision: 0
# Processed by: cddbd v1.5.1PL2 Copyright (c) Steve Scherf et al.
# Submitted via: CDex 1.51
#
DISCID=8006390c
DTITLE=Patti Page - In the Land of Hi Fi
DYEAR=1956
DGENRE=Jazz
TTITLE0=Nevertheless
TTITLE1=Out of Nowhere
TTITLE2=The Lady Is a Tramp
TTITLE3=The Thrill Is Gone
TTITLE4=A Foggy Day
TTITLE5=Mountain Greenery
TTITLE6=I've Got My Eyes on You
TTITLE7=My Kind of Love
TTITLE8=I Didn't Know About You
TTITLE9=My Sin
TTITLE10=Taking a Chance on Love
TTITLE11=Love for Sale
EXTD=YEAR: 1956
EXTT0=
EXTT1=
EXTT2=
EXTT3=
EXTT4=
EXTT5=
EXTT6=
EXTT7=
EXTT8=
EXTT9=
EXTT10=
EXTT11=
PLAYORDER=
